<svg width="48" height="48" viewBox="0 0 48 48" fill="none" xmlns="http://www.w3.org/2000/svg">
<g id="account_circle_24px">
<path id="icon/action/account_circle_24px" fill-rule="evenodd" clip-rule="evenodd" d="M24 4C12.96 4 4 12.96 4 24C4 35.04 12.96 44 24 44C35.04 44 44 35.04 44 24C44 12.96 35.04 4 24 4ZM24 10C27.32 10 30 12.68 30 16C30 19.32 27.32 22 24 22C20.68 22 18 19.32 18 16C18 12.68 20.68 10 24 10ZM12 31.96C14.58 35.84 19 38.4 24 38.4C29 38.4 33.42 35.84 36 31.96C35.94 27.98 27.98 25.8 24 25.8C20 25.8 12.06 27.98 12 31.96Z" fill="#F2F2F2"/>
</g>
</svg>
