<svg width="48" height="48" viewBox="0 0 48 48" fill="none" xmlns="http://www.w3.org/2000/svg">
<path d="M12 23.9998C13.6569 23.9998 15 22.6567 15 20.9998C15 19.3429 13.6569 17.9998 12 17.9998C10.3431 17.9998 9 19.3429 9 20.9998C9 22.6567 10.3431 23.9998 12 23.9998Z" stroke="black" stroke-opacity="0.936232" stroke-width="2"/>
<path d="M24 34.0001C25.6569 34.0001 27 32.6569 27 31C27 29.3432 25.6569 28 24 28C22.3431 28 21 29.3432 21 31C21 32.6569 22.3431 34.0001 24 34.0001Z" stroke="black" stroke-opacity="0.936232" stroke-width="2"/>
<path d="M36 17.9998C37.6569 17.9998 39 16.6567 39 14.9998C39 13.3429 37.6569 11.9998 36 11.9998C34.3431 11.9998 33 13.3429 33 14.9998C33 16.6567 34.3431 17.9998 36 17.9998Z" stroke="black" stroke-opacity="0.936232" stroke-width="2"/>
<path d="M12 21L24 31.0002" stroke="black" stroke-width="2"/>
<path d="M36 15.0002L24 31.0003" stroke="black" stroke-width="2"/>
<path d="M12 23.0001C13.1046 23.0001 14 22.1046 14 21C14 19.8955 13.1046 19 12 19C10.8954 19 10 19.8955 10 21C10 22.1046 10.8954 23.0001 12 23.0001Z" fill="white"/>
<path d="M24 33.0001C25.1046 33.0001 26 32.1046 26 31C26 29.8955 25.1046 29 24 29C22.8954 29 22 29.8955 22 31C22 32.1046 22.8954 33.0001 24 33.0001Z" fill="white"/>
<path d="M36 17.0001C37.1046 17.0001 38 16.1046 38 15C38 13.8955 37.1046 13 36 13C34.8954 13 34 13.8955 34 15C34 16.1046 34.8954 17.0001 36 17.0001Z" fill="white"/>
<path d="M6 9.00026C6 8.44797 5.55228 8.00024 5 8.00024C4.44772 8.00024 4 8.44797 4 9.00026V39.0003C4 39.5525 4.44772 40.0003 5 40.0003C5.55228 40.0003 6 39.5525 6 39.0003V9.00026Z" fill="black"/>
<path d="M43 38.0002H5C4.44772 38.0002 4 38.448 4 39.0003C4 39.5525 4.44772 40.0003 5 40.0003H43C43.5523 40.0003 44 39.5525 44 39.0003C44 38.448 43.5523 38.0002 43 38.0002Z" fill="black"/>
</svg>
