<svg width="48" height="48" viewBox="0 0 48 48" fill="none" xmlns="http://www.w3.org/2000/svg">
<g id="lightbulb_outline_24px">
<path id="icon/action/lightbulb_outline_24px" fill-rule="evenodd" clip-rule="evenodd" d="M24 4C16.28 4 10 10.28 10 18C10 22.76 12.38 26.94 16 29.48V34C16 35.1 16.9 36 18 36H30C31.1 36 32 35.1 32 34V29.48C35.62 26.94 38 22.76 38 18C38 10.28 31.72 4 24 4ZM18 42C18 43.1 18.9 44 20 44H28C29.1 44 30 43.1 30 42V40H18V42ZM28 27.4L29.7 26.2C32.4 24.32 34 21.26 34 18C34 12.48 29.52 8 24 8C18.48 8 14 12.48 14 18C14 21.26 15.6 24.32 18.3 26.2L20 27.4V32H28V27.4Z" fill="#F2F2F2"/>
</g>
</svg>
