<svg width="48" height="48" viewBox="0 0 48 48" fill="none" xmlns="http://www.w3.org/2000/svg">
<path d="M24 8.00006C26.0944 5.90567 29.0381 4.68628 32 4.68628C34.9619 4.68628 37.9056 5.90567 40 8.00006C42.0944 10.0944 43.3137 13.0381 43.3137 15.9999C43.3137 18.9619 42.0944 21.9057 40 24.0001" stroke="black" stroke-width="2"/>
<path d="M8.3139 23.6863C6.21951 25.7807 5.00012 28.7244 5.00012 31.6863C5.00012 34.6482 6.21951 37.5919 8.3139 39.6863C10.4083 41.7807 13.3519 43 16.3138 43C19.2757 43 22.2195 41.7807 24.3139 39.6863" stroke="black" stroke-width="2"/>
<path d="M8 24.0003L24 8.00024" stroke="black" stroke-width="2"/>
<path d="M40 24.0002L24 40.0003" stroke="black" stroke-width="2"/>
<path d="M19 19L5 33" stroke="black" stroke-width="2"/>
<path d="M16 16L32 32" stroke="black" stroke-width="2"/>
<path d="M15.4242 41.9465C14.9073 41.8895 14.1106 41.7374 13.6142 41.6009C9.83168 40.5608 7.05024 37.5799 6.22313 33.6798L6.14441 33.3087L12.57 26.883L18.9956 20.4573L24.7657 26.2273L30.5358 31.9973L26.8863 35.6499C24.879 37.6589 23.0824 39.4324 22.8937 39.5911C21.8594 40.4612 20.3902 41.2248 19.0366 41.5958C18.1089 41.8501 17.4965 41.9359 16.4957 41.9519C16.0046 41.9597 15.5225 41.9573 15.4242 41.9465V41.9465Z" fill="black"/>
</svg>
