<svg width="48" height="48" viewBox="0 0 48 48" fill="none" xmlns="http://www.w3.org/2000/svg">
<g id="search_24px">
<path id="icon/action/search_24px" fill-rule="evenodd" clip-rule="evenodd" d="M30.3732 28.9431H31.9532L40.4332 37.4631C41.2532 38.2831 41.2532 39.6231 40.4332 40.4431C39.6132 41.2631 38.2732 41.2631 37.4532 40.4431L28.9532 31.9431V30.3631L28.4132 29.8031C25.6132 32.2031 21.7932 33.4431 17.7332 32.7631C12.1732 31.8231 7.73316 27.1831 7.05316 21.5831C6.01316 13.1231 13.1332 6.00315 21.5932 7.04315C27.1932 7.72315 31.8332 12.1631 32.7732 17.7231C33.4532 21.7831 32.2132 25.6031 29.8132 28.4031L30.3732 28.9431ZM10.9531 19.9431C10.9531 24.9231 14.9731 28.9431 19.9531 28.9431C24.9331 28.9431 28.9531 24.9231 28.9531 19.9431C28.9531 14.9631 24.9331 10.9431 19.9531 10.9431C14.9731 10.9431 10.9531 14.9631 10.9531 19.9431Z" fill="#F2F2F2"/>
</g>
</svg>
