<svg width="48" height="48" viewBox="0 0 48 48" fill="none" xmlns="http://www.w3.org/2000/svg">
<g id="settings_24px">
<path id="icon/action/settings_24px" fill-rule="evenodd" clip-rule="evenodd" d="M39.0043 24C39.0043 24.68 38.9443 25.32 38.8643 25.96L43.0843 29.26C43.4643 29.56 43.5643 30.1 43.3243 30.54L39.3243 37.46C39.0843 37.9 38.5643 38.08 38.1043 37.9L33.1243 35.9C32.0843 36.68 30.9643 37.36 29.7443 37.86L28.9843 43.16C28.9243 43.64 28.5043 44 28.0043 44H20.0043C19.5043 44 19.0843 43.64 19.0243 43.16L18.2643 37.86C17.0443 37.36 15.9243 36.7 14.8843 35.9L9.90432 37.9C9.46432 38.06 8.92432 37.9 8.68432 37.46L4.68432 30.54C4.44432 30.1 4.54432 29.56 4.92432 29.26L9.14432 25.96C9.06432 25.32 9.00432 24.66 9.00432 24C9.00432 23.34 9.06432 22.68 9.14432 22.04L4.92432 18.74C4.54432 18.44 4.42432 17.9 4.68432 17.46L8.68432 10.54C8.92432 10.1 9.44432 9.92 9.90432 10.1L14.8843 12.1C15.9243 11.32 17.0443 10.64 18.2643 10.14L19.0243 4.84C19.0843 4.36 19.5043 4 20.0043 4H28.0043C28.5043 4 28.9243 4.36 28.9843 4.84L29.7443 10.14C30.9643 10.64 32.0843 11.3 33.1243 12.1L38.1043 10.1C38.5443 9.94 39.0843 10.1 39.3243 10.54L43.3243 17.46C43.5643 17.9 43.4643 18.44 43.0843 18.74L38.8643 22.04C38.9443 22.68 39.0043 23.32 39.0043 24ZM17.0043 24C17.0043 27.86 20.1443 31 24.0043 31C27.8643 31 31.0043 27.86 31.0043 24C31.0043 20.14 27.8643 17 24.0043 17C20.1443 17 17.0043 20.14 17.0043 24Z" fill="#F2F2F2"/>
</g>
</svg>
